<?xml version="1.0" encoding="UTF-8" standalone="no"?>
<svg
   xmlns:dc="http://purl.org/dc/elements/1.1/"
   xmlns:cc="http://creativecommons.org/ns#"
   xmlns:rdf="http://www.w3.org/1999/02/22-rdf-syntax-ns#"
   xmlns:svg="http://www.w3.org/2000/svg"
   xmlns="http://www.w3.org/2000/svg"
   xmlns:sodipodi="http://sodipodi.sourceforge.net/DTD/sodipodi-0.dtd"
   xmlns:inkscape="http://www.inkscape.org/namespaces/inkscape"
   inkscape:version="1.0 (4035a4fb49, 2020-05-01)"
   sodipodi:docname="modelo6.svg"
   id="svg34"
   version="1.1"
   width="24.66123"
   height="25.372108">
  <path
     style="stroke-width:3.77905"
     id="path776"
     fill="#6d97c4"
     d="M 1.0051157,4.4994494 H 20.99407 V 19.700445 c -7.455238,3.288132 -13.5879546,2.872391 -20.00029023,0 z" />
  <path
     style="stroke-width:3.77905"
     id="path778"
     fill="#bacee3"
     d="m 1.0051157,3.701983 v 15.79815 l 2.002674,1.001558 -0.00756,-16.8034875 z" />
  <path
     style="stroke-width:3.77905"
     id="path780"
     fill="#55769a"
     d="M 21.001627,4.0005605 V 19.496354 L 17.003836,21.00058 V 4.0043399 Z" />
  <path
     style="stroke-width:3.77905"
     id="path782"
     fill="#415a75"
     d="m 21.001627,3.497892 h 1.001337 V 18.40031 h -1.001337 z m -20.99784837,0 H 1.0051157 V 18.40031 H 0 Z" />
  <path
     style="stroke-width:3.77905"
     id="path784"
     fill="#415a75"
     d="m 1.0051157,8.2978085 v 1.7007578 c 0.7935123,0.5518017 1.5492384,0.8541587 2.3049644,1.0884847 1.9648878,0.597155 4.7459597,0.91463 7.6932909,0.91463 2.947332,0 5.554587,-0.328813 7.519475,-0.925968 0.906871,-0.309916 1.783513,-0.566919 2.478781,-1.0771467 V 8.2978085 c 0,0.245665 -0.173817,0.6198318 -0.642367,0.9448655 -0.46855,0.3401515 -1.182711,0.6349496 -2.104697,0.91463 -1.851529,0.555581 -4.383211,0.84282 -7.25497,0.84282 -2.8717592,0 -5.5697013,-0.28346 -7.4061156,-0.84282 C 2.6639344,9.8927414 1.9459946,9.5903845 1.4774444,9.2502329 1.0126729,8.9176403 1.001337,8.5396941 1.001337,8.3053675 Z" />
  <ellipse
     id="ellipse786"
     stroke-width="1.00145"
     stroke-linejoin="round"
     stroke-linecap="round"
     stroke="#415a75"
     ry="3.0008929"
     rx="10.500813"
     fill="#bacee3"
     cy="3.5016716"
     cx="11.003372" />
  <path
     style="stroke-width:3.77905"
     id="path788"
     fill="#415a75"
     d="m 0.00377863,18.40031 c 0,0.642508 0.35896988,1.239663 0.9597721,1.662963 0.58568767,0.434638 1.48122307,0.793687 2.46366697,1.096044 1.9648877,0.604714 4.6250435,0.84282 7.5723753,0.84282 2.947331,0 5.569701,-0.234327 7.549703,-0.839041 0.982444,-0.294798 1.866644,-0.665185 2.467446,-1.096043 0.589466,-0.42708 0.982444,-1.020455 0.982444,-1.662964 h -1.001337 c 0,0 -0.03023,0.585817 -0.529009,0.925969 -0.472328,0.340151 -1.190268,0.642508 -2.116033,0.922188 -1.851528,0.559361 -4.481455,0.744554 -7.353214,0.744554 -2.8717592,0 -5.4638996,-0.173855 -7.3040926,-0.736995 C 2.7810719,19.987684 2.0631321,19.685327 1.594582,19.333837 1.1298105,19.012583 1.0051157,18.638416 1.0051157,18.40031 Z M 1.0051157,13.298036 v 1.700758 c 0.7935123,0.551802 1.5492384,0.850379 2.3125217,1.084706 1.9648878,0.597155 4.7384024,0.918409 7.6857336,0.918409 2.947332,0 5.554587,-0.328813 7.519475,-0.925968 0.906871,-0.313695 1.783513,-0.566919 2.478781,-1.077147 v -1.700758 c 0,0.245666 -0.173817,0.619832 -0.642367,0.944866 -0.46855,0.340152 -1.182711,0.63495 -2.104697,0.91463 -1.851529,0.555581 -4.383211,0.84282 -7.25497,0.84282 -2.8717592,0 -5.5659226,-0.28346 -7.4061156,-0.8466 C 2.6714916,14.88919 1.9535519,14.586833 1.4850017,14.246681 1.0164515,13.917868 1.001337,13.539922 1.001337,13.301816 Z" />
  <ellipse
     style="stroke-width:0.0378776"
     cx="16.695305"
     cy="17.332289"
     rx="5.2184334"
     ry="5.0945578"
     fill="#ffffff"
     id="ellipse808" />
  <path
     style="stroke-width:0.533;stroke:#cddc39;stroke-opacity:1;stroke-miterlimit:4;stroke-dasharray:none"
     d="m 15.576536,25.322199 c -0.140261,-0.06262 -0.289524,-0.222826 -0.356099,-0.382346 -0.03432,-0.08219 -0.06856,-0.398229 -0.09786,-0.903273 -0.02482,-0.427224 -0.05751,-0.810842 -0.07261,-0.852491 -0.02006,-0.05525 -0.11808,-0.107336 -0.362427,-0.192657 -0.18423,-0.06432 -0.461652,-0.180654 -0.616494,-0.258507 -0.154873,-0.07785 -0.315292,-0.141549 -0.356522,-0.141549 -0.04625,0 -0.299212,0.205703 -0.660268,0.536844 -0.321914,0.295296 -0.637305,0.563554 -0.700911,0.596169 -0.130932,0.06712 -0.425479,0.07805 -0.577613,0.02143 -0.120917,-0.04504 -1.400387,-1.30571 -1.482423,-1.460697 -0.08135,-0.153714 -0.07264,-0.441216 0.01863,-0.615413 0.04156,-0.07929 0.312161,-0.400642 0.601391,-0.714105 0.311313,-0.337435 0.525814,-0.599367 0.525814,-0.642092 0,-0.03972 -0.06371,-0.198887 -0.141565,-0.35371 -0.07783,-0.154824 -0.193919,-0.431497 -0.257949,-0.614826 -0.06403,-0.183296 -0.142609,-0.346893 -0.174608,-0.363494 -0.03203,-0.01657 -0.407832,-0.04944 -0.835105,-0.07299 -0.496946,-0.0274 -0.8313857,-0.06233 -0.9281655,-0.09696 C 8.9173579,18.745522 8.7049122,18.519432 8.674903,18.35727 8.662736,18.29152 8.657746,17.804249 8.663813,17.274484 l 0.01109,-0.963187 0.1107079,-0.138777 c 0.1956797,-0.245232 0.2876319,-0.269857 1.2222231,-0.327324 0.529011,-0.03255 0.850566,-0.06699 0.877281,-0.094 0.02316,-0.02342 0.102423,-0.205181 0.176141,-0.403904 0.07372,-0.198724 0.188862,-0.470635 0.255959,-0.604291 0.06706,-0.133624 0.121929,-0.272336 0.121929,-0.308245 0,-0.03588 -0.221253,-0.307951 -0.491662,-0.604519 -0.270409,-0.296601 -0.529076,-0.588734 -0.57484,-0.649202 -0.128583,-0.170088 -0.172096,-0.380683 -0.121211,-0.587005 0.03843,-0.15577 0.108816,-0.240243 0.69654,-0.835858 0.359589,-0.36444 0.714122,-0.693689 0.78784,-0.731653 0.171118,-0.08813 0.443191,-0.08937 0.613102,-0.0027 0.07153,0.03646 0.38539,0.300645 0.697453,0.587102 0.312031,0.286458 0.588507,0.532832 0.614341,0.547509 0.02724,0.01546 0.195353,-0.04361 0.399905,-0.140473 0.194082,-0.09194 0.484454,-0.211508 0.645329,-0.265715 0.218089,-0.07348 0.302702,-0.120447 0.332809,-0.184698 0.02221,-0.04739 0.06031,-0.435737 0.08465,-0.862961 C 15.17021,9.8829451 15.19836,9.7530395 15.367779,9.5761682 15.55628,9.3793578 15.664672,9.3632134 16.718191,9.37502 l 0.95961,0.010763 0.150112,0.099411 c 0.258275,0.1710005 0.289556,0.2773255 0.35039,1.191557 0.02942,0.44252 0.06155,0.839054 0.0714,0.881192 0.01383,0.05929 0.0929,0.102803 0.350032,0.192559 0.182697,0.0638 0.475287,0.187863 0.650189,0.275695 0.174901,0.08783 0.332026,0.159683 0.34915,0.159683 0.01713,0 0.29794,-0.244873 0.624029,-0.544149 0.326089,-0.299275 0.653255,-0.575655 0.726974,-0.614206 0.174281,-0.09109 0.433731,-0.09028 0.624322,0.002 0.09055,0.04383 0.398013,0.323606 0.784154,0.713584 0.662877,0.66939 0.715133,0.745971 0.715655,1.049127 3.58e-4,0.214411 -0.09512,0.35508 -0.664998,0.979755 -0.309878,0.339686 -0.563358,0.631982 -0.563358,0.649594 0,0.01761 0.08086,0.200582 0.179729,0.406611 0.09883,0.205997 0.216719,0.494542 0.261928,0.641179 0.05624,0.182155 0.105163,0.276314 0.154548,0.297286 0.03973,0.01686 0.439243,0.05359 0.887816,0.0816 0.890165,0.05561 1.033524,0.0922 1.182755,0.302112 0.141108,0.198398 0.157548,0.347122 0.145316,1.316538 l -0.01171,0.927343 -0.108881,0.154856 c -0.194473,0.276478 -0.243597,0.2906 -1.231128,0.355047 -0.482529,0.03151 -0.885794,0.06572 -0.896135,0.07606 -0.01034,0.01034 -0.07026,0.164575 -0.133117,0.342686 -0.06289,0.178143 -0.186513,0.467634 -0.274747,0.643298 -0.08823,0.175697 -0.155461,0.341121 -0.149394,0.367604 0.0061,0.02648 0.246859,0.305179 0.535012,0.619327 0.288187,0.314115 0.560553,0.643266 0.605241,0.731457 0.09499,0.187308 0.103793,0.385607 0.02544,0.573046 -0.06909,0.165456 -1.242512,1.358024 -1.433234,1.456717 -0.159472,0.08252 -0.449942,0.09132 -0.616885,0.01882 -0.06393,-0.02779 -0.384574,-0.295981 -0.71249,-0.596007 -0.327916,-0.299993 -0.6223,-0.545519 -0.654169,-0.545617 -0.03187,-9.7e-5 -0.216588,0.07397 -0.410474,0.164576 -0.193886,0.09057 -0.481191,0.207105 -0.638446,0.258898 -0.217371,0.07159 -0.290144,0.112261 -0.303452,0.1695 -0.0097,0.04142 -0.04165,0.437367 -0.07111,0.879888 -0.06475,0.97333 -0.101933,1.07884 -0.440907,1.25046 -0.09831,0.04977 -0.26095,0.05835 -1.084051,0.05714 -0.728441,-0.0011 -0.995229,-0.0134 -1.076776,-0.0498 z m 1.427297,-4.32162 c 0.873562,-0.09155 1.603439,-0.439912 2.224793,-1.061913 0.473623,-0.474059 0.779196,-1.005977 0.963198,-1.676575 0.11534,-0.420407 0.114655,-1.348696 -0.0013,-1.774257 -0.351956,-1.291359 -1.276468,-2.242152 -2.554339,-2.626846 -0.297744,-0.08966 -0.378606,-0.09817 -0.957555,-0.100683 -0.554519,-0.0024 -0.670152,0.0076 -0.939485,0.08108 -1.34487,0.367115 -2.373436,1.447585 -2.654511,2.788519 -0.252502,1.204734 0.11671,2.434385 0.996371,3.318317 0.460576,0.462808 1.058151,0.802363 1.705633,0.969188 0.184622,0.04755 0.446583,0.08421 0.819708,0.114707 0.02985,0.0024 0.208695,-0.01174 0.397492,-0.03154 z m -0.896036,-1.514772 c -0.921414,-0.249831 -1.566221,-1.033896 -1.623336,-1.973796 -0.03993,-0.65716 0.171575,-1.213148 0.638316,-1.677978 0.849978,-0.846522 2.207178,-0.854448 3.046393,-0.01781 0.69119,0.68909 0.857056,1.669171 0.428022,2.529457 -0.365394,0.732729 -1.03858,1.165139 -1.864225,1.197494 -0.281108,0.01102 -0.420129,-0.0017 -0.625203,-0.05737 z m 1.030784,-0.911068 c 0.254491,-0.09524 0.558041,-0.377323 0.685711,-0.637298 0.09009,-0.183427 0.100955,-0.244482 0.100955,-0.566849 0,-0.342979 -0.0063,-0.37292 -0.123821,-0.589679 -0.237268,-0.437596 -0.589355,-0.659346 -1.08666,-0.684394 -0.399514,-0.02016 -0.638609,0.06445 -0.927024,0.328009 -0.365656,0.334141 -0.511135,0.798677 -0.393708,1.257048 0.10164,0.396762 0.317021,0.666162 0.679252,0.849687 0.33793,0.171229 0.685842,0.185449 1.065328,0.04348 z"
     fill="#869094"
     id="path810" />
  <ellipse
     style="stroke-width:0.0326169"
     ry="5.3816414"
     rx="5.3822522"
     cy="17.357317"
     cx="16.694151"
     fill="#ffffff"
     id="circle812" />
  <path
     style="stroke-width:0.0326169"
     d="m 15.946693,22.814365 c -1.171795,-0.153617 -2.258651,-0.69894 -3.133876,-1.572533 -0.767225,-0.765735 -1.261105,-1.667019 -1.516607,-2.767776 -0.05686,-0.244939 -0.156375,-0.638276 -0.154842,-1.272573 0.0018,-0.749558 0.08295,-0.933376 0.196039,-1.292957 0.503633,-1.601202 1.428896,-2.71794 2.864152,-3.450278 1.283808,-0.655072 2.863434,-0.768246 4.245946,-0.304233 1.325494,0.444902 2.530495,1.496638 3.160526,2.758481 1.050714,2.104419 0.628106,4.644509 -1.053389,6.331489 a 5.4941667,5.4935435 0 0 1 -4.607949,1.570413 z m -1.546877,-0.787653 c -0.0078,-0.03395 -0.02518,-0.154856 -0.03865,-0.268617 -0.02228,-0.188091 -0.01233,-0.219075 0.109306,-0.340729 0.174151,-0.174099 0.329123,-0.174327 1.064414,-0.0014 0.309584,0.0728 0.765365,0.164217 1.012876,0.203192 0.559803,0.08813 1.924798,0.09938 2.420635,0.01996 0.402842,-0.06454 1.076581,-0.244939 1.250406,-0.334826 0.189841,-0.09817 0.831125,-0.865863 0.772314,-0.924636 -0.01403,-0.01402 -0.228527,0.02528 -0.47669,0.08731 -0.854611,0.213628 -1.257191,0.01135 -2.09347,-0.01386 -1.447194,-0.04364 -2.636375,-0.347871 -4.584626,-1.172934 -1.166217,-0.493889 -1.454697,-0.286294 -1.748624,0.0076 -0.22122,0.221227 -0.227222,0.325824 -0.03826,0.670369 0.430567,0.785174 1.155388,1.52785 1.939052,1.986809 0.292068,0.171033 0.438429,0.200158 0.411323,0.0818 z m 7.3504,-3.118615 c 0.02362,-0.05417 0.07156,-0.236459 0.106532,-0.405046 0.05793,-0.27925 0.05718,-0.311376 -0.0085,-0.361244 -0.0396,-0.0301 -0.0989,-0.05473 -0.13178,-0.05473 -0.121994,0 -0.816936,-0.315713 -1.190127,-0.540627 -0.716829,-0.432116 -1.620008,-1.164747 -2.893639,-2.347303 -1.25282,-1.163214 -1.628,-1.462914 -2.110105,-1.685642 -0.570893,-0.263757 -1.332997,-0.309745 -2.093991,-0.126383 -0.281206,0.06774 -0.357012,0.107532 -0.527217,0.276804 -0.388325,0.386162 -0.753459,0.89688 -0.986553,1.379941 -0.376028,0.779271 -0.359817,1.335585 0.114459,0.933018 0.36047,-0.305994 0.71983,-0.341544 1.082028,-0.403448 0.236388,-0.04044 0.58792,0.01344 0.868604,0.07599 0.579244,0.128993 0.992294,0.550053 2.492266,1.614574 1.698,1.20506 1.999658,1.204049 3.156775,1.664769 0.499686,0.198951 1.787832,0.07175 1.978847,0.07576 0.0625,0.0013 0.115405,-0.03454 0.142381,-0.09644 z m -0.151188,-2.756263 c 0.141011,-0.123774 0.156929,-0.158378 0.137977,-0.299765 -0.03383,-0.252048 -0.313857,-0.895217 -0.566685,-1.301502 -0.298298,-0.479343 -1.032382,-1.231543 -1.501244,-1.538189 -0.692104,-0.452697 -1.351589,-0.717498 -2.138581,-0.858623 -0.701042,-0.125731 -2.150193,-0.03053 -2.208744,0.145136 -0.01213,0.0364 0.06315,0.05202 0.250805,0.05202 1.170849,0 2.170646,0.325857 2.928476,0.954511 0.449813,0.373084 0.764844,0.727381 1.280155,1.439562 0.866679,1.197819 1.206566,1.533885 1.561425,1.544028 0.05333,0.0015 0.168737,-0.06021 0.256383,-0.137179 z"
     fill="#367bf0"
     id="path814" />
  <metadata
     id="metadata40">
    <rdf:RDF>
      <cc:Work
         rdf:about="">
        <dc:format>image/svg+xml</dc:format>
        <dc:type
           rdf:resource="http://purl.org/dc/dcmitype/StillImage" />
        <dc:title></dc:title>
      </cc:Work>
    </rdf:RDF>
  </metadata>
  <defs
     id="defs38" />
  <sodipodi:namedview
     inkscape:current-layer="svg34"
     inkscape:window-maximized="1"
     inkscape:window-y="0"
     inkscape:window-x="0"
     inkscape:cy="24.753809"
     inkscape:cx="7.3715478"
     inkscape:zoom="5.3225791"
     showgrid="false"
     id="namedview36"
     inkscape:window-height="718"
     inkscape:window-width="1366"
     inkscape:pageshadow="2"
     inkscape:pageopacity="0"
     guidetolerance="10"
     gridtolerance="10"
     objecttolerance="10"
     borderopacity="1"
     bordercolor="#666666"
     pagecolor="#ffffff"
     inkscape:document-rotation="0"
     showguides="true"
     inkscape:guide-bbox="true"
     fit-margin-left="0"
     fit-margin-top="0"
     fit-margin-right="0"
     fit-margin-bottom="0" />
</svg>
